<svg width="683" height="129" viewBox="0 0 683 129" fill="none" xmlns="http://www.w3.org/2000/svg">
<rect x="3" y="3" width="677" height="123" fill="white" stroke="black" stroke-width="6"/>
<rect x="11" y="11" width="660" height="107" fill="black"/>
<path d="M59.4352 91V32.812H59.5132L89.0752 74.776L85.8772 74.152L115.361 32.812H115.517V91H108.029V49.972L108.497 53.794L87.2032 83.902H87.0472L65.4412 53.794L66.7672 50.284V91H59.4352ZM122.206 91L146.854 32.266H147.322L171.892 91H163.234L144.826 44.122L150.208 40.612L129.616 91H122.206ZM136.636 69.628H157.618L160.114 76.18H134.452L136.636 69.628ZM193.59 34.606C196.45 34.606 199.076 34.996 201.468 35.776C203.912 36.504 206.018 37.622 207.786 39.13C209.606 40.586 211.01 42.406 211.998 44.59C213.038 46.722 213.558 49.218 213.558 52.078C213.558 54.314 213.22 56.498 212.544 58.63C211.92 60.762 210.854 62.712 209.346 64.48C207.838 66.196 205.862 67.6 203.418 68.692C201.026 69.732 198.062 70.252 194.526 70.252H186.18V91H178.614V34.606H193.59ZM194.37 62.998C196.606 62.998 198.452 62.66 199.908 61.984C201.416 61.308 202.586 60.45 203.418 59.41C204.25 58.318 204.848 57.148 205.212 55.9C205.576 54.652 205.758 53.482 205.758 52.39C205.758 51.246 205.55 50.076 205.134 48.88C204.77 47.632 204.146 46.488 203.262 45.448C202.43 44.408 201.312 43.55 199.908 42.874C198.556 42.198 196.892 41.86 194.916 41.86H186.18V62.998H194.37ZM203.652 67.288L218.394 91H209.658L194.682 67.522L203.652 67.288ZM240.638 34.606C246.306 34.606 250.752 35.776 253.976 38.116C257.252 40.404 258.89 43.992 258.89 48.88C258.89 51.844 258.214 54.418 256.862 56.602C255.51 58.786 253.612 60.502 251.168 61.75C248.776 62.998 245.942 63.7 242.666 63.856L241.574 59.956C245.37 60.06 248.776 60.736 251.792 61.984C254.808 63.232 257.2 64.974 258.968 67.21C260.736 69.446 261.62 72.098 261.62 75.166C261.62 77.974 261.1 80.392 260.06 82.42C259.02 84.396 257.616 86.034 255.848 87.334C254.08 88.582 252.078 89.518 249.842 90.142C247.606 90.714 245.292 91 242.9 91H226.13V34.606H240.638ZM242.198 59.332C245.318 59.332 247.58 58.474 248.984 56.758C250.388 54.99 251.09 52.858 251.09 50.362C251.09 47.398 250.18 45.24 248.36 43.888C246.54 42.536 244.096 41.86 241.028 41.86H233.696V59.332H242.198ZM242.51 83.98C244.59 83.98 246.488 83.668 248.204 83.044C249.972 82.42 251.35 81.458 252.338 80.158C253.378 78.858 253.898 77.22 253.898 75.244C253.898 73.06 253.3 71.344 252.104 70.096C250.96 68.848 249.478 67.964 247.658 67.444C245.838 66.872 243.966 66.586 242.042 66.586H233.696V83.98H242.51ZM270.447 34.606H307.107V41.86H278.013V59.02H303.987V66.274H278.013V83.746H308.199V91H270.447V34.606ZM366.257 92.794L322.655 48.568L324.839 49.114L324.995 91H317.429V32.89H317.819L360.953 77.272L359.159 76.882L359.003 34.606H366.491V92.794H366.257ZM375.299 62.842C375.299 58.942 376.027 55.276 377.483 51.844C378.991 48.36 381.071 45.292 383.723 42.64C386.375 39.936 389.417 37.83 392.849 36.322C396.333 34.762 400.077 33.982 404.081 33.982C408.033 33.982 411.725 34.762 415.157 36.322C418.641 37.83 421.709 39.936 424.361 42.64C427.065 45.292 429.171 48.36 430.679 51.844C432.187 55.276 432.941 58.942 432.941 62.842C432.941 66.846 432.187 70.59 430.679 74.074C429.171 77.558 427.065 80.626 424.361 83.278C421.709 85.878 418.641 87.932 415.157 89.44C411.725 90.896 408.033 91.624 404.081 91.624C400.077 91.624 396.333 90.896 392.849 89.44C389.417 87.984 386.375 85.956 383.723 83.356C381.071 80.756 378.991 77.714 377.483 74.23C376.027 70.746 375.299 66.95 375.299 62.842ZM383.099 62.92C383.099 65.884 383.645 68.666 384.737 71.266C385.829 73.814 387.337 76.076 389.261 78.052C391.185 80.028 393.421 81.588 395.969 82.732C398.517 83.824 401.273 84.37 404.237 84.37C407.149 84.37 409.879 83.824 412.427 82.732C414.975 81.588 417.185 80.028 419.057 78.052C420.929 76.076 422.411 73.814 423.503 71.266C424.595 68.666 425.141 65.858 425.141 62.842C425.141 59.878 424.595 57.096 423.503 54.496C422.411 51.844 420.903 49.53 418.979 47.554C417.055 45.578 414.819 44.044 412.271 42.952C409.723 41.808 406.993 41.236 404.081 41.236C401.117 41.236 398.361 41.808 395.813 42.952C393.265 44.096 391.029 45.656 389.105 47.632C387.181 49.608 385.699 51.922 384.659 54.574C383.619 57.174 383.099 59.956 383.099 62.92ZM456.842 34.606C460.95 34.606 464.46 35.308 467.372 36.712C470.284 38.064 472.52 40.04 474.08 42.64C475.692 45.24 476.498 48.386 476.498 52.078C476.498 54.314 476.16 56.524 475.484 58.708C474.808 60.84 473.716 62.79 472.208 64.558C470.752 66.274 468.828 67.652 466.436 68.692C464.044 69.732 461.132 70.252 457.7 70.252H449.354V91H441.788V34.606H456.842ZM457.622 62.998C459.858 62.998 461.704 62.634 463.16 61.906C464.616 61.178 465.76 60.268 466.592 59.176C467.424 58.032 468.022 56.836 468.386 55.588C468.75 54.34 468.932 53.222 468.932 52.234C468.932 51.09 468.75 49.92 468.386 48.724C468.022 47.476 467.398 46.358 466.514 45.37C465.682 44.33 464.564 43.498 463.16 42.874C461.808 42.198 460.118 41.86 458.09 41.86H449.354V62.998H457.622ZM480.766 62.842C480.766 58.942 481.494 55.276 482.95 51.844C484.458 48.36 486.538 45.292 489.19 42.64C491.842 39.936 494.884 37.83 498.316 36.322C501.8 34.762 505.544 33.982 509.548 33.982C513.5 33.982 517.192 34.762 520.624 36.322C524.108 37.83 527.176 39.936 529.828 42.64C532.532 45.292 534.638 48.36 536.146 51.844C537.654 55.276 538.408 58.942 538.408 62.842C538.408 66.846 537.654 70.59 536.146 74.074C534.638 77.558 532.532 80.626 529.828 83.278C527.176 85.878 524.108 87.932 520.624 89.44C517.192 90.896 513.5 91.624 509.548 91.624C505.544 91.624 501.8 90.896 498.316 89.44C494.884 87.984 491.842 85.956 489.19 83.356C486.538 80.756 484.458 77.714 482.95 74.23C481.494 70.746 480.766 66.95 480.766 62.842ZM488.566 62.92C488.566 65.884 489.112 68.666 490.204 71.266C491.296 73.814 492.804 76.076 494.728 78.052C496.652 80.028 498.888 81.588 501.436 82.732C503.984 83.824 506.74 84.37 509.704 84.37C512.616 84.37 515.346 83.824 517.894 82.732C520.442 81.588 522.652 80.028 524.524 78.052C526.396 76.076 527.878 73.814 528.97 71.266C530.062 68.666 530.608 65.858 530.608 62.842C530.608 59.878 530.062 57.096 528.97 54.496C527.878 51.844 526.37 49.53 524.446 47.554C522.522 45.578 520.286 44.044 517.738 42.952C515.19 41.808 512.46 41.236 509.548 41.236C506.584 41.236 503.828 41.808 501.28 42.952C498.732 44.096 496.496 45.656 494.572 47.632C492.648 49.608 491.166 51.922 490.126 54.574C489.086 57.174 488.566 59.956 488.566 62.92ZM547.255 34.606H554.821V83.746H583.447V91H547.255V34.606ZM600.835 72.202L579.931 34.606H589.213L605.983 65.728L603.643 65.884L620.257 34.606H629.461L608.401 72.202V91H600.835V72.202Z" fill="white"/>
</svg>
